<svg viewBox="5 6.5 281 249">
  <g transform="rotate(180 145.5 131)" >
   <path d="m285.99997,153.91411l0,-132.13804c0,-8.4273 -7.87356,-15.27607 -17.5625,-15.27607l-245.87498,0c-9.68865,0 -17.5625,6.84877 -17.5625,15.27607l0,132.13804c0,8.4273 7.87385,15.27607 17.5625,15.27607l245.87498,0c9.71792,0 17.5625,-6.82331 17.5625,-15.27607z"/>
     <path d="m262.29059,200.25153c0,-7.17975 -6.67375,-12.98466 -14.92812,-12.98466l-203.72498,0c-8.25437,0 -14.92812,5.80491 -14.92812,12.98466s6.67375,12.98466 14.92812,12.98466l203.72498,0c8.25437,0 14.92812,-5.83037 14.92812,-12.98466z"/>
     <path d="m62.04884,229.53067c-8.25437,0 -14.92812,5.80491 -14.92812,12.98466s6.67375,12.98466 14.92812,12.98466l172.75644,0c8.25408,0 9.07396,-5.80491 9.07396,-12.98466s-6.67404,-12.98466 -14.92812,-12.98466l-166.90228,0z"/>
  </g>
</svg>